<?xml version="1.0" standalone="no"?>
<!DOCTYPE svg PUBLIC "-//W3C//DTD SVG 20010904//EN"
 "http://www.w3.org/TR/2001/REC-SVG-20010904/DTD/svg10.dtd">
<svg version="1.0" xmlns="http://www.w3.org/2000/svg"
 width="245.000000pt" height="80.000000pt" viewBox="0 0 245.000000 80.000000"
 preserveAspectRatio="xMidYMid meet">
<metadata>
Created by potrace 1.16, written by Peter Selinger 2001-2019
</metadata>
<g transform="translate(0.000000,80.000000) scale(0.100000,-0.100000)"
fill="#000000" stroke="none">
<path d="M150 694 c-16 -41 -12 -147 7 -190 11 -26 18 -70 19 -129 1 -51 8
-103 15 -120 27 -58 71 -114 112 -141 36 -24 54 -29 124 -32 70 -3 89 -1 124
17 56 30 91 67 125 132 24 46 28 67 30 139 1 63 7 97 22 130 23 48 27 101 13
164 -15 63 -24 64 -81 10 -29 -27 -55 -49 -58 -48 -4 0 -29 11 -57 24 -70 33
-147 32 -217 -3 l-53 -26 -49 49 c-27 28 -53 50 -58 50 -5 0 -13 -12 -18 -26z
m220 -409 c0 -138 -5 -147 -53 -97 -39 41 -67 110 -67 170 l0 52 60 0 60 0 0
-125z m140 3 c0 -68 -4 -129 -9 -136 -5 -9 -25 -12 -62 -10 l-54 3 -3 133 -3
132 66 0 65 0 0 -122z m130 82 c0 -55 -33 -137 -72 -177 -17 -18 -36 -33 -40
-33 -4 0 -8 56 -8 125 l0 125 60 0 60 0 0 -40z"/>
<path d="M875 587 c-14 -21 -15 -34 -6 -81 8 -44 7 -63 -4 -90 -18 -43 -12
-62 23 -69 44 -8 55 1 48 44 -6 38 -6 39 25 39 19 0 46 10 64 25 38 28 51 23
28 -11 -20 -31 -10 -69 22 -90 23 -15 27 -15 51 1 15 9 24 12 20 7 -9 -16 12
-25 40 -18 18 5 24 13 24 33 l0 27 28 -27 c32 -31 82 -36 103 -11 12 14 14 14
21 -5 8 -22 29 -20 60 7 16 13 18 13 23 -1 9 -22 40 -27 69 -11 22 11 26 11
26 -2 0 -24 49 -17 60 9 5 12 9 17 9 10 2 -32 120 -44 149 -15 16 16 22 17 37
5 25 -18 66 -16 94 4 14 9 21 12 18 6 -11 -17 16 -32 39 -23 30 11 38 28 24
45 -7 8 -10 20 -7 27 2 7 11 -4 20 -24 20 -47 47 -62 75 -42 20 14 22 14 22
-1 0 -12 7 -15 28 -13 27 3 27 4 24 65 -2 34 1 69 6 79 8 15 13 12 35 -20 19
-29 24 -46 20 -75 -5 -33 -2 -39 17 -44 25 -6 60 7 60 23 0 6 -5 18 -11 29
-10 14 -5 30 25 83 20 36 36 77 36 91 0 23 -4 27 -29 27 -39 0 -49 -16 -53
-80 l-3 -55 -17 39 c-10 21 -18 47 -18 57 0 34 -66 53 -89 25 -9 -11 -10 -20
-1 -35 8 -16 8 -19 -3 -15 -8 3 -22 -2 -31 -11 -15 -15 -14 -19 5 -57 21 -41
21 -41 1 -61 -20 -19 -20 -19 -36 5 -12 19 -14 31 -6 58 14 47 13 49 -14 61
-26 12 -66 -2 -66 -24 0 -7 -15 -12 -37 -12 -41 0 -52 -15 -28 -39 23 -23 15
-50 -16 -54 -35 -4 -59 22 -59 63 0 46 41 79 86 70 19 -3 35 -1 39 5 13 20 -5
60 -29 66 -37 9 -107 -15 -138 -48 -24 -25 -28 -39 -28 -84 0 -42 -3 -54 -15
-54 -9 0 -27 -7 -40 -16 -19 -12 -28 -14 -39 -5 -15 12 -7 45 27 108 9 18 17
46 17 62 0 25 -5 32 -27 37 -46 12 -58 -5 -59 -87 -1 -41 -6 -85 -12 -99 -10
-23 -11 -21 -11 21 -1 63 -23 87 -86 95 -47 6 -52 4 -62 -19 -10 -21 -9 -28 3
-38 11 -9 18 -8 34 6 16 15 24 16 42 7 l23 -11 -23 0 c-31 -1 -78 -26 -96 -53
-14 -20 -15 -19 -13 23 l2 44 -37 3 c-32 3 -38 0 -38 -17 0 -11 7 -27 16 -36
20 -20 3 -45 -30 -45 -33 0 -46 19 -46 67 0 37 4 44 29 58 18 9 41 12 59 9 34
-7 49 15 32 46 -32 59 -175 10 -195 -67 l-6 -24 -17 21 c-13 15 -31 22 -72 25
-30 2 -56 8 -58 14 -6 17 -75 50 -120 57 -35 6 -42 3 -57 -19z"/>
<path d="M864 258 c3 -13 6 -38 6 -55 0 -23 5 -33 15 -33 11 0 15 11 15 40 0
22 5 40 10 40 6 0 10 -18 10 -40 0 -47 26 -57 33 -12 l4 27 2 -27 c1 -31 31
-40 31 -10 1 16 1 16 11 0 25 -44 93 -3 69 42 -14 26 -70 28 -70 3 -1 -17 -1
-17 -11 0 -5 9 -17 17 -24 17 -8 0 -15 7 -15 15 0 11 -12 15 -46 15 -43 0 -46
-2 -40 -22z"/>
<path d="M1120 226 l0 -55 75 0 c64 0 75 3 75 17 1 16 1 16 11 0 11 -21 40
-23 57 -6 8 8 15 8 26 -1 18 -15 58 -11 64 7 2 7 -6 12 -22 12 -17 0 -26 5
-26 16 0 11 5 14 16 10 9 -3 19 -6 23 -6 4 0 13 -11 19 -25 9 -20 19 -25 46
-25 32 0 35 3 39 33 l4 32 1 -32 c2 -30 5 -33 32 -33 22 0 30 5 30 18 1 16 1
16 11 0 13 -23 55 -23 68 -1 10 17 10 17 11 1 0 -10 7 -18 15 -18 10 0 15 10
15 30 0 17 5 30 10 30 6 0 10 -13 10 -30 0 -16 5 -30 10 -30 6 0 10 18 10 40
0 39 -1 40 -35 40 -21 0 -35 -5 -35 -12 0 -9 -3 -9 -12 0 -15 15 -51 15 -66 0
-9 -9 -12 -6 -12 15 0 23 -4 27 -30 27 -20 0 -30 -5 -30 -15 0 -11 -11 -15
-38 -15 -21 0 -43 -5 -50 -12 -9 -9 -12 -9 -12 0 0 7 -19 11 -55 10 -50 -1
-54 -3 -58 -27 l-4 -26 -2 28 c-1 20 -6 27 -21 27 -11 0 -20 7 -20 15 0 8 -7
15 -15 15 -8 0 -15 -7 -15 -15 0 -9 -9 -15 -25 -15 -17 0 -25 -6 -25 -17 0
-11 -3 -14 -8 -7 -4 6 -14 14 -22 17 -10 4 -8 6 8 6 39 2 27 31 -13 31 l-35 0
0 -54z"/>
<path d="M1800 225 c0 -42 3 -55 15 -55 9 0 15 9 16 23 l0 22 11 -22 c12 -24
48 -32 48 -11 0 9 3 9 12 0 18 -18 55 -15 67 6 10 16 10 16 11 0 0 -32 29 -20
33 15 l3 32 8 -32 c9 -35 36 -46 36 -15 1 15 2 15 15 -2 8 -11 16 -18 18 -15
1 2 10 21 19 41 18 40 10 58 -15 33 -12 -11 -16 -12 -20 -2 -3 9 -8 9 -20 -2
-11 -9 -17 -10 -17 -2 0 6 -7 11 -15 11 -8 0 -15 7 -15 15 0 22 -27 18 -33 -4
-3 -14 -11 -17 -31 -14 -14 3 -33 0 -41 -7 -13 -11 -15 -8 -15 14 0 16 -5 26
-15 26 -10 0 -15 -10 -15 -27 l-1 -28 -17 28 c-27 44 -42 34 -42 -28z"/>
</g>
</svg>
